<svg width="859" height="494" viewBox="0 0 859 494" fill="none" xmlns="http://www.w3.org/2000/svg">
<path d="M295.997 175.162V230.44V285.718H256.939V175.162C256.939 114.056 301.004 40.7207 365.159 19.5697C380.53 13.664 396.397 9.13928 412.571 6.04922L419.684 4.69022V45.7753C419.684 45.7753 396.656 48.3585 361.519 62.4592C326.382 76.5598 295.997 135.475 295.997 175.162ZM381.466 194.69H321.002V155.633H381.466V194.69Z" fill="#F79F13"/>
<path d="M562.145 285.72V193.747H448.754V285.72H409.697V6.56612L432.161 2.43884L448.754 0V154.69H562.145V70.6846L570.711 82.016C588.024 104.918 598.363 132.328 600.489 160.958L601.202 170.564V285.72H562.145Z" fill="#1E1E1E"/>
<path d="M81.9145 342.428H26.8989V370.053H79.1991V382.568H26.8989V422.59H14.3846V329.913H81.9145V342.428ZM135.746 329.913C161.365 329.913 182.143 350.692 182.143 376.311C182.143 401.811 161.365 422.59 135.746 422.59H135.156C109.655 422.59 88.8763 401.811 88.8763 376.311C88.8763 350.692 109.655 329.913 135.156 329.913H135.746ZM135.746 410.076C154.399 410.076 169.629 394.964 169.629 376.311C169.629 357.657 154.399 342.428 135.746 342.428H135.156C116.502 342.428 101.391 357.657 101.391 376.311C101.391 394.964 116.502 410.076 135.156 410.076H135.746ZM236.618 390.124H235.91L264.598 422.59H247.952L208.048 377.609H236.618C246.299 377.609 254.209 369.699 254.209 360.018C254.209 350.338 246.299 342.428 236.618 342.428H206.985V422.59H194.471V329.913H236.618C253.147 329.913 266.723 343.49 266.723 360.018C266.723 376.665 253.147 390.124 236.618 390.124ZM271.306 329.913H353.121V342.428H318.412V422.59H305.898V342.428H271.306V329.913ZM478.002 329.913H490.517V422.59H478.002V382.332H430.306V422.59H417.792V329.913H430.306V369.699H478.002V329.913ZM549.645 329.913C575.264 329.913 596.042 350.692 596.042 376.311C596.042 401.811 575.264 422.59 549.645 422.59H549.055C523.554 422.59 502.775 401.811 502.775 376.311C502.775 350.692 523.554 329.913 549.055 329.913H549.645ZM549.645 410.076C568.298 410.076 583.528 394.964 583.528 376.311C583.528 357.657 568.298 342.428 549.645 342.428H549.055C530.401 342.428 515.29 357.657 515.29 376.311C515.29 394.964 530.401 410.076 549.055 410.076H549.645ZM673.303 329.913H685.817V383.04C685.817 404.881 668.108 422.59 646.267 422.59C624.426 422.59 606.717 404.881 606.717 383.04V329.913H619.232V383.04C619.232 397.915 631.392 410.076 646.267 410.076C661.143 410.076 673.303 397.915 673.303 383.04V329.913ZM754.552 380.325C762.107 384.103 766.948 391.894 766.948 400.395C766.948 412.673 757.031 422.59 744.753 422.59H696.939V410.076H744.753C750.065 410.076 754.433 405.707 754.433 400.395C754.433 396.735 752.308 393.311 749.003 391.658L709.335 372.179C701.779 368.519 696.939 360.609 696.939 352.227C696.939 339.948 706.856 329.913 719.134 329.913H765.531V342.428H719.134C713.821 342.428 709.453 346.796 709.453 352.227C709.453 355.886 711.578 359.31 714.884 360.963L754.552 380.325ZM846.994 342.428H791.978V370.053H844.278V382.568H791.978V410.076H846.994V422.59H779.464V329.913H846.994V342.428Z" fill="#1E1E1E"/>
<path d="M12.0041 464.634V462.098H29.7091V464.634H22.2859V485.705H19.4273V464.634H12.0041ZM47.1839 475.054V485.705H44.4636V462.098H47.1839V470.766H47.4144C47.8294 469.852 48.4518 469.126 49.2818 468.588C50.1194 468.042 51.2336 467.77 52.6245 467.77C53.831 467.77 54.8876 468.012 55.7944 468.496C56.7011 468.972 57.4043 469.706 57.9037 470.697C58.4109 471.681 58.6645 472.933 58.6645 474.455V485.705H55.9442V474.639C55.9442 473.233 55.5792 472.146 54.8492 471.377C54.1268 470.601 53.124 470.213 51.8407 470.213C50.9493 470.213 50.1501 470.401 49.4431 470.778C48.7439 471.155 48.1906 471.704 47.7833 472.426C47.3837 473.149 47.1839 474.025 47.1839 475.054ZM81.7759 486.074C80.0699 486.074 78.5984 485.697 77.3612 484.944C76.1316 484.184 75.1826 483.123 74.5141 481.763C73.8532 480.395 73.5228 478.804 73.5228 476.991C73.5228 475.177 73.8532 473.579 74.5141 472.196C75.1826 470.805 76.1124 469.721 77.3035 468.945C78.5023 468.161 79.9009 467.77 81.4992 467.77C82.4214 467.77 83.332 467.923 84.2311 468.231C85.1302 468.538 85.9486 469.037 86.6863 469.729C87.424 470.413 88.0118 471.32 88.4498 472.449C88.8879 473.579 89.1069 474.97 89.1069 476.622V477.775H75.4593V475.423H86.3405C86.3405 474.424 86.1407 473.533 85.7411 472.749C85.3492 471.965 84.7882 471.347 84.0582 470.893C83.3358 470.44 82.4829 470.213 81.4992 470.213C80.4157 470.213 79.4782 470.482 78.6867 471.02C77.9029 471.55 77.2997 472.242 76.877 473.095C76.4544 473.948 76.2431 474.862 76.2431 475.838V477.406C76.2431 478.743 76.4736 479.876 76.9347 480.806C77.4034 481.728 78.0528 482.431 78.8827 482.916C79.7126 483.392 80.677 483.63 81.7759 483.63C82.4905 483.63 83.136 483.53 83.7124 483.331C84.2964 483.123 84.7997 482.816 85.2224 482.408C85.645 481.993 85.9716 481.479 86.2021 480.864L88.8302 481.602C88.5536 482.493 88.0887 483.277 87.4355 483.953C86.7823 484.622 85.9754 485.144 85.0149 485.521C84.0543 485.89 82.9747 486.074 81.7759 486.074ZM126.517 462.098V485.705H123.797V462.098H126.517ZM147.422 486.12C146.3 486.12 145.281 485.909 144.367 485.486C143.452 485.056 142.726 484.437 142.188 483.63C141.65 482.816 141.382 481.832 141.382 480.679C141.382 479.665 141.581 478.843 141.981 478.213C142.38 477.575 142.915 477.075 143.583 476.714C144.252 476.353 144.989 476.084 145.796 475.907C146.611 475.723 147.429 475.577 148.251 475.469C149.327 475.331 150.199 475.227 150.868 475.158C151.544 475.081 152.036 474.955 152.343 474.778C152.658 474.601 152.816 474.294 152.816 473.856V473.763C152.816 472.626 152.505 471.742 151.882 471.112C151.268 470.482 150.334 470.167 149.081 470.167C147.783 470.167 146.764 470.451 146.027 471.02C145.289 471.589 144.77 472.196 144.471 472.841L141.889 471.919C142.35 470.843 142.965 470.006 143.733 469.406C144.509 468.799 145.354 468.377 146.269 468.138C147.191 467.892 148.098 467.77 148.989 467.77C149.558 467.77 150.211 467.839 150.949 467.977C151.694 468.108 152.413 468.38 153.104 468.795C153.803 469.21 154.384 469.837 154.845 470.674C155.306 471.512 155.536 472.634 155.536 474.04V485.705H152.816V483.308H152.678C152.493 483.692 152.186 484.103 151.756 484.541C151.325 484.979 150.753 485.352 150.038 485.659C149.323 485.966 148.451 486.12 147.422 486.12ZM147.836 483.676C148.912 483.676 149.819 483.465 150.557 483.042C151.302 482.62 151.863 482.074 152.24 481.406C152.624 480.737 152.816 480.034 152.816 479.296V476.806C152.701 476.945 152.447 477.072 152.055 477.187C151.671 477.294 151.225 477.39 150.718 477.475C150.219 477.552 149.731 477.621 149.254 477.682C148.785 477.736 148.405 477.782 148.113 477.821C147.406 477.913 146.745 478.063 146.131 478.27C145.523 478.47 145.032 478.774 144.655 479.181C144.286 479.581 144.102 480.126 144.102 480.818C144.102 481.763 144.451 482.478 145.151 482.962C145.858 483.438 146.753 483.676 147.836 483.676ZM171.213 485.705V468H173.841V470.674H174.025C174.348 469.798 174.932 469.087 175.778 468.542C176.623 467.996 177.576 467.723 178.636 467.723C178.836 467.723 179.086 467.727 179.385 467.735C179.685 467.743 179.912 467.754 180.065 467.77V470.536C179.973 470.513 179.762 470.478 179.431 470.432C179.109 470.378 178.767 470.352 178.406 470.352C177.545 470.352 176.777 470.532 176.1 470.893C175.432 471.247 174.902 471.739 174.51 472.369C174.125 472.991 173.933 473.702 173.933 474.501V485.705H171.213ZM200.609 492.713C199.295 492.713 198.166 492.544 197.22 492.206C196.275 491.876 195.488 491.438 194.857 490.892C194.235 490.354 193.739 489.778 193.371 489.163L195.538 487.642C195.783 487.964 196.095 488.333 196.471 488.748C196.848 489.171 197.363 489.536 198.016 489.843C198.677 490.158 199.541 490.316 200.609 490.316C202.039 490.316 203.218 489.97 204.148 489.278C205.078 488.587 205.543 487.503 205.543 486.028V482.431H205.312C205.112 482.754 204.828 483.154 204.459 483.63C204.098 484.099 203.575 484.518 202.892 484.887C202.215 485.248 201.301 485.428 200.148 485.428C198.719 485.428 197.436 485.09 196.298 484.414C195.169 483.738 194.273 482.754 193.613 481.463C192.959 480.172 192.633 478.605 192.633 476.76C192.633 474.947 192.952 473.368 193.59 472.023C194.227 470.67 195.115 469.625 196.252 468.888C197.389 468.142 198.704 467.77 200.194 467.77C201.347 467.77 202.261 467.962 202.938 468.346C203.622 468.722 204.144 469.153 204.505 469.637C204.874 470.113 205.158 470.505 205.358 470.813H205.635V468H208.263V486.212C208.263 487.734 207.917 488.971 207.226 489.924C206.542 490.884 205.62 491.588 204.459 492.033C203.307 492.487 202.023 492.713 200.609 492.713ZM200.517 482.985C201.608 482.985 202.53 482.735 203.283 482.236C204.037 481.736 204.609 481.018 205.001 480.08C205.393 479.143 205.589 478.021 205.589 476.714C205.589 475.439 205.397 474.313 205.012 473.337C204.628 472.361 204.06 471.596 203.307 471.043C202.553 470.49 201.624 470.213 200.517 470.213C199.364 470.213 198.404 470.505 197.635 471.089C196.875 471.673 196.302 472.457 195.918 473.441C195.541 474.424 195.353 475.515 195.353 476.714C195.353 477.944 195.545 479.031 195.929 479.976C196.321 480.914 196.898 481.652 197.658 482.189C198.427 482.72 199.38 482.985 200.517 482.985ZM231.377 486.074C229.671 486.074 228.2 485.697 226.963 484.944C225.733 484.184 224.784 483.123 224.115 481.763C223.455 480.395 223.124 478.804 223.124 476.991C223.124 475.177 223.455 473.579 224.115 472.196C224.784 470.805 225.714 469.721 226.905 468.945C228.104 468.161 229.502 467.77 231.101 467.77C232.023 467.77 232.933 467.923 233.832 468.231C234.732 468.538 235.55 469.037 236.288 469.729C237.025 470.413 237.613 471.32 238.051 472.449C238.489 473.579 238.708 474.97 238.708 476.622V477.775H225.061V475.423H235.942C235.942 474.424 235.742 473.533 235.342 472.749C234.951 471.965 234.39 471.347 233.66 470.893C232.937 470.44 232.084 470.213 231.101 470.213C230.017 470.213 229.08 470.482 228.288 471.02C227.504 471.55 226.901 472.242 226.478 473.095C226.056 473.948 225.844 474.862 225.844 475.838V477.406C225.844 478.743 226.075 479.876 226.536 480.806C227.005 481.728 227.654 482.431 228.484 482.916C229.314 483.392 230.278 483.63 231.377 483.63C232.092 483.63 232.737 483.53 233.314 483.331C233.898 483.123 234.401 482.816 234.824 482.408C235.246 481.993 235.573 481.479 235.804 480.864L238.432 481.602C238.155 482.493 237.69 483.277 237.037 483.953C236.384 484.622 235.577 485.144 234.616 485.521C233.656 485.89 232.576 486.074 231.377 486.074ZM266.099 471.965L263.655 472.657C263.502 472.25 263.275 471.854 262.975 471.47C262.683 471.078 262.284 470.755 261.776 470.501C261.269 470.248 260.62 470.121 259.828 470.121C258.745 470.121 257.842 470.371 257.12 470.87C256.405 471.362 256.048 471.988 256.048 472.749C256.048 473.425 256.294 473.959 256.785 474.351C257.277 474.743 258.046 475.07 259.091 475.331L261.719 475.977C263.302 476.361 264.481 476.949 265.257 477.74C266.034 478.524 266.422 479.534 266.422 480.772C266.422 481.786 266.13 482.693 265.546 483.492C264.969 484.291 264.162 484.921 263.125 485.382C262.088 485.843 260.881 486.074 259.506 486.074C257.7 486.074 256.205 485.682 255.022 484.898C253.838 484.114 253.089 482.969 252.774 481.463L255.356 480.818C255.602 481.771 256.067 482.485 256.751 482.962C257.442 483.438 258.345 483.676 259.46 483.676C260.727 483.676 261.734 483.407 262.48 482.87C263.233 482.324 263.609 481.671 263.609 480.91C263.609 480.295 263.394 479.78 262.964 479.365C262.533 478.943 261.872 478.628 260.981 478.42L258.03 477.729C256.409 477.344 255.218 476.749 254.457 475.942C253.704 475.127 253.327 474.109 253.327 472.887C253.327 471.888 253.608 471.005 254.169 470.236C254.737 469.468 255.51 468.865 256.486 468.427C257.469 467.989 258.584 467.77 259.828 467.77C261.58 467.77 262.956 468.154 263.955 468.922C264.962 469.691 265.676 470.705 266.099 471.965ZM288.928 468V470.305H279.753V468H288.928ZM282.427 463.758H285.147V480.633C285.147 481.402 285.259 481.978 285.481 482.362C285.712 482.739 286.004 482.992 286.357 483.123C286.719 483.246 287.099 483.308 287.499 483.308C287.798 483.308 288.044 483.292 288.236 483.261C288.428 483.223 288.582 483.192 288.697 483.169L289.251 485.613C289.066 485.682 288.809 485.751 288.478 485.82C288.148 485.897 287.729 485.936 287.222 485.936C286.454 485.936 285.7 485.77 284.963 485.44C284.233 485.11 283.626 484.606 283.142 483.93C282.665 483.254 282.427 482.401 282.427 481.371V463.758ZM343.859 473.902C343.859 476.392 343.41 478.543 342.51 480.357C341.611 482.17 340.378 483.569 338.81 484.552C337.243 485.536 335.452 486.028 333.439 486.028C331.426 486.028 329.635 485.536 328.068 484.552C326.5 483.569 325.267 482.17 324.367 480.357C323.468 478.543 323.019 476.392 323.019 473.902C323.019 471.412 323.468 469.26 324.367 467.447C325.267 465.633 326.5 464.235 328.068 463.251C329.635 462.267 331.426 461.776 333.439 461.776C335.452 461.776 337.243 462.267 338.81 463.251C340.378 464.235 341.611 465.633 342.51 467.447C343.41 469.26 343.859 471.412 343.859 473.902ZM341.093 473.902C341.093 471.858 340.751 470.133 340.067 468.726C339.391 467.32 338.472 466.256 337.312 465.533C336.159 464.811 334.868 464.45 333.439 464.45C332.01 464.45 330.715 464.811 329.554 465.533C328.402 466.256 327.483 467.32 326.8 468.726C326.123 470.133 325.785 471.858 325.785 473.902C325.785 475.946 326.123 477.671 326.8 479.077C327.483 480.483 328.402 481.548 329.554 482.27C330.715 482.992 332.01 483.354 333.439 483.354C334.868 483.354 336.159 482.992 337.312 482.27C338.472 481.548 339.391 480.483 340.067 479.077C340.751 477.671 341.093 475.946 341.093 473.902ZM361.729 475.054V485.705H359.008V468H361.637V470.766H361.867C362.282 469.867 362.912 469.145 363.757 468.599C364.603 468.046 365.694 467.77 367.031 467.77C368.23 467.77 369.279 468.015 370.178 468.507C371.077 468.991 371.776 469.729 372.276 470.72C372.775 471.704 373.025 472.949 373.025 474.455V485.705H370.305V474.639C370.305 473.249 369.943 472.165 369.221 471.389C368.499 470.605 367.507 470.213 366.247 470.213C365.379 470.213 364.603 470.401 363.919 470.778C363.243 471.155 362.708 471.704 362.317 472.426C361.925 473.149 361.729 474.025 361.729 475.054ZM391.428 462.098V485.705H388.707V462.098H391.428ZM407.122 485.705V468H409.842V485.705H407.122ZM408.505 465.049C407.975 465.049 407.517 464.869 407.133 464.507C406.757 464.146 406.568 463.712 406.568 463.205C406.568 462.698 406.757 462.264 407.133 461.902C407.517 461.541 407.975 461.361 408.505 461.361C409.035 461.361 409.488 461.541 409.865 461.902C410.249 462.264 410.441 462.698 410.441 463.205C410.441 463.712 410.249 464.146 409.865 464.507C409.488 464.869 409.035 465.049 408.505 465.049ZM428.256 475.054V485.705H425.536V468H428.164V470.766H428.394C428.809 469.867 429.44 469.145 430.285 468.599C431.13 468.046 432.221 467.77 433.558 467.77C434.757 467.77 435.806 468.015 436.705 468.507C437.604 468.991 438.304 469.729 438.803 470.72C439.303 471.704 439.552 472.949 439.552 474.455V485.705H436.832V474.639C436.832 473.249 436.471 472.165 435.748 471.389C435.026 470.605 434.035 470.213 432.775 470.213C431.906 470.213 431.13 470.401 430.446 470.778C429.77 471.155 429.236 471.704 428.844 472.426C428.452 473.149 428.256 474.025 428.256 475.054ZM462.658 486.074C460.952 486.074 459.48 485.697 458.243 484.944C457.014 484.184 456.065 483.123 455.396 481.763C454.735 480.395 454.405 478.804 454.405 476.991C454.405 475.177 454.735 473.579 455.396 472.196C456.065 470.805 456.994 469.721 458.186 468.945C459.384 468.161 460.783 467.77 462.381 467.77C463.303 467.77 464.214 467.923 465.113 468.231C466.012 468.538 466.831 469.037 467.568 469.729C468.306 470.413 468.894 471.32 469.332 472.449C469.77 473.579 469.989 474.97 469.989 476.622V477.775H456.341V475.423H467.222C467.222 474.424 467.023 473.533 466.623 472.749C466.231 471.965 465.67 471.347 464.94 470.893C464.218 470.44 463.365 470.213 462.381 470.213C461.298 470.213 460.36 470.482 459.569 471.02C458.785 471.55 458.182 472.242 457.759 473.095C457.336 473.948 457.125 474.862 457.125 475.838V477.406C457.125 478.743 457.356 479.876 457.817 480.806C458.285 481.728 458.935 482.431 459.765 482.916C460.595 483.392 461.559 483.63 462.658 483.63C463.373 483.63 464.018 483.53 464.594 483.331C465.178 483.123 465.682 482.816 466.104 482.408C466.527 481.993 466.854 481.479 467.084 480.864L469.712 481.602C469.436 482.493 468.971 483.277 468.318 483.953C467.664 484.622 466.857 485.144 465.897 485.521C464.936 485.89 463.857 486.074 462.658 486.074ZM517.958 468C517.82 466.832 517.259 465.925 516.275 465.28C515.291 464.634 514.085 464.312 512.656 464.312C511.611 464.312 510.696 464.481 509.912 464.819C509.136 465.157 508.529 465.622 508.091 466.213C507.661 466.805 507.446 467.478 507.446 468.231C507.446 468.861 507.595 469.402 507.895 469.856C508.203 470.302 508.594 470.674 509.071 470.974C509.547 471.266 510.047 471.508 510.569 471.7C511.092 471.885 511.572 472.034 512.01 472.15L514.408 472.795C515.022 472.957 515.706 473.179 516.459 473.464C517.22 473.748 517.946 474.136 518.638 474.628C519.337 475.112 519.914 475.734 520.367 476.495C520.82 477.256 521.047 478.19 521.047 479.296C521.047 480.572 520.713 481.725 520.044 482.754C519.383 483.784 518.415 484.602 517.14 485.209C515.872 485.817 514.331 486.12 512.517 486.12C510.827 486.12 509.363 485.847 508.126 485.302C506.896 484.756 505.928 483.995 505.221 483.019C504.522 482.043 504.126 480.91 504.034 479.619H506.985C507.061 480.51 507.361 481.248 507.884 481.832C508.414 482.408 509.082 482.839 509.889 483.123C510.704 483.4 511.58 483.538 512.517 483.538C513.609 483.538 514.588 483.361 515.457 483.008C516.325 482.647 517.013 482.147 517.52 481.509C518.027 480.864 518.281 480.111 518.281 479.25C518.281 478.466 518.062 477.828 517.624 477.337C517.186 476.845 516.609 476.445 515.895 476.138C515.18 475.831 514.408 475.562 513.578 475.331L510.673 474.501C508.829 473.971 507.369 473.214 506.293 472.23C505.217 471.247 504.679 469.96 504.679 468.369C504.679 467.047 505.037 465.895 505.751 464.911C506.474 463.92 507.442 463.151 508.656 462.606C509.878 462.052 511.242 461.776 512.748 461.776C514.269 461.776 515.622 462.048 516.805 462.594C517.989 463.132 518.926 463.87 519.618 464.807C520.317 465.745 520.686 466.809 520.724 468H517.958ZM538.81 475.054V485.705H536.09V462.098H538.81V470.766H539.041C539.456 469.852 540.078 469.126 540.908 468.588C541.746 468.042 542.86 467.77 544.251 467.77C545.457 467.77 546.514 468.012 547.42 468.496C548.327 468.972 549.03 469.706 549.53 470.697C550.037 471.681 550.291 472.933 550.291 474.455V485.705H547.57V474.639C547.57 473.233 547.205 472.146 546.475 471.377C545.753 470.601 544.75 470.213 543.467 470.213C542.575 470.213 541.776 470.401 541.069 470.778C540.37 471.155 539.817 471.704 539.409 472.426C539.01 473.149 538.81 474.025 538.81 475.054ZM573.172 486.074C571.573 486.074 570.171 485.694 568.964 484.933C567.766 484.172 566.828 483.108 566.152 481.74C565.483 480.372 565.149 478.774 565.149 476.945C565.149 475.101 565.483 473.491 566.152 472.115C566.828 470.74 567.766 469.671 568.964 468.911C570.171 468.15 571.573 467.77 573.172 467.77C574.77 467.77 576.169 468.15 577.367 468.911C578.574 469.671 579.511 470.74 580.18 472.115C580.856 473.491 581.194 475.101 581.194 476.945C581.194 478.774 580.856 480.372 580.18 481.74C579.511 483.108 578.574 484.172 577.367 484.933C576.169 485.694 574.77 486.074 573.172 486.074ZM573.172 483.63C574.386 483.63 575.385 483.319 576.169 482.697C576.952 482.074 577.533 481.256 577.909 480.241C578.286 479.227 578.474 478.128 578.474 476.945C578.474 475.761 578.286 474.659 577.909 473.637C577.533 472.615 576.952 471.789 576.169 471.158C575.385 470.528 574.386 470.213 573.172 470.213C571.957 470.213 570.958 470.528 570.175 471.158C569.391 471.789 568.811 472.615 568.434 473.637C568.058 474.659 567.869 475.761 567.869 476.945C567.869 478.128 568.058 479.227 568.434 480.241C568.811 481.256 569.391 482.074 570.175 482.697C570.958 483.319 571.957 483.63 573.172 483.63ZM596.058 492.344V468H598.686V470.813H599.009C599.209 470.505 599.485 470.113 599.839 469.637C600.2 469.153 600.715 468.722 601.383 468.346C602.06 467.962 602.974 467.77 604.127 467.77C605.618 467.77 606.932 468.142 608.069 468.888C609.206 469.633 610.094 470.69 610.732 472.057C611.369 473.425 611.688 475.039 611.688 476.899C611.688 478.774 611.369 480.399 610.732 481.774C610.094 483.142 609.21 484.203 608.08 484.956C606.951 485.701 605.648 486.074 604.173 486.074C603.036 486.074 602.125 485.886 601.441 485.509C600.757 485.125 600.231 484.691 599.862 484.207C599.493 483.715 599.209 483.308 599.009 482.985H598.778V492.344H596.058ZM598.732 476.853C598.732 478.19 598.928 479.369 599.32 480.391C599.712 481.406 600.285 482.201 601.038 482.777C601.791 483.346 602.713 483.63 603.804 483.63C604.941 483.63 605.89 483.331 606.651 482.731C607.42 482.124 607.996 481.31 608.38 480.288C608.772 479.258 608.968 478.113 608.968 476.853C608.968 475.608 608.776 474.486 608.392 473.487C608.015 472.48 607.443 471.685 606.674 471.101C605.913 470.509 604.957 470.213 603.804 470.213C602.698 470.213 601.768 470.494 601.015 471.055C600.262 471.608 599.693 472.384 599.309 473.383C598.924 474.374 598.732 475.531 598.732 476.853ZM626.55 492.344V468H629.178V470.813H629.5C629.7 470.505 629.977 470.113 630.33 469.637C630.692 469.153 631.206 468.722 631.875 468.346C632.551 467.962 633.466 467.77 634.618 467.77C636.109 467.77 637.423 468.142 638.56 468.888C639.698 469.633 640.585 470.69 641.223 472.057C641.861 473.425 642.18 475.039 642.18 476.899C642.18 478.774 641.861 480.399 641.223 481.774C640.585 483.142 639.702 484.203 638.572 484.956C637.442 485.701 636.14 486.074 634.664 486.074C633.527 486.074 632.616 485.886 631.933 485.509C631.249 485.125 630.722 484.691 630.353 484.207C629.985 483.715 629.7 483.308 629.5 482.985H629.27V492.344H626.55ZM629.224 476.853C629.224 478.19 629.42 479.369 629.812 480.391C630.204 481.406 630.776 482.201 631.529 482.777C632.282 483.346 633.204 483.63 634.296 483.63C635.433 483.63 636.382 483.331 637.143 482.731C637.911 482.124 638.487 481.31 638.872 480.288C639.264 479.258 639.459 478.113 639.459 476.853C639.459 475.608 639.267 474.486 638.883 473.487C638.507 472.48 637.934 471.685 637.166 471.101C636.405 470.509 635.448 470.213 634.296 470.213C633.189 470.213 632.259 470.494 631.506 471.055C630.753 471.608 630.184 472.384 629.8 473.383C629.416 474.374 629.224 475.531 629.224 476.853ZM657.041 485.705V468H659.761V485.705H657.041ZM658.424 465.049C657.894 465.049 657.437 464.869 657.052 464.507C656.676 464.146 656.488 463.712 656.488 463.205C656.488 462.698 656.676 462.264 657.052 461.902C657.437 461.541 657.894 461.361 658.424 461.361C658.954 461.361 659.408 461.541 659.784 461.902C660.168 462.264 660.361 462.698 660.361 463.205C660.361 463.712 660.168 464.146 659.784 464.507C659.408 464.869 658.954 465.049 658.424 465.049ZM678.175 475.054V485.705H675.455V468H678.083V470.766H678.314C678.729 469.867 679.359 469.145 680.204 468.599C681.049 468.046 682.141 467.77 683.478 467.77C684.676 467.77 685.725 468.015 686.624 468.507C687.524 468.991 688.223 469.729 688.722 470.72C689.222 471.704 689.472 472.949 689.472 474.455V485.705H686.751V474.639C686.751 473.249 686.39 472.165 685.668 471.389C684.945 470.605 683.954 470.213 682.694 470.213C681.826 470.213 681.049 470.401 680.365 470.778C679.689 471.155 679.155 471.704 678.763 472.426C678.371 473.149 678.175 474.025 678.175 475.054ZM712.301 492.713C710.987 492.713 709.857 492.544 708.912 492.206C707.967 491.876 707.179 491.438 706.549 490.892C705.926 490.354 705.431 489.778 705.062 489.163L707.229 487.642C707.475 487.964 707.786 488.333 708.163 488.748C708.539 489.171 709.054 489.536 709.707 489.843C710.368 490.158 711.232 490.316 712.301 490.316C713.73 490.316 714.91 489.97 715.839 489.278C716.769 488.587 717.234 487.503 717.234 486.028V482.431H717.004C716.804 482.754 716.519 483.154 716.151 483.63C715.789 484.099 715.267 484.518 714.583 484.887C713.907 485.248 712.992 485.428 711.84 485.428C710.41 485.428 709.127 485.09 707.99 484.414C706.86 483.738 705.965 482.754 705.304 481.463C704.651 480.172 704.324 478.605 704.324 476.76C704.324 474.947 704.643 473.368 705.281 472.023C705.919 470.67 706.806 469.625 707.944 468.888C709.081 468.142 710.395 467.77 711.886 467.77C713.038 467.77 713.953 467.962 714.629 468.346C715.313 468.722 715.835 469.153 716.197 469.637C716.566 470.113 716.85 470.505 717.05 470.813H717.326V468H719.954V486.212C719.954 487.734 719.609 488.971 718.917 489.924C718.233 490.884 717.311 491.588 716.151 492.033C714.998 492.487 713.715 492.713 712.301 492.713ZM712.208 482.985C713.3 482.985 714.222 482.735 714.975 482.236C715.728 481.736 716.3 481.018 716.692 480.08C717.084 479.143 717.28 478.021 717.28 476.714C717.28 475.439 717.088 474.313 716.704 473.337C716.32 472.361 715.751 471.596 714.998 471.043C714.245 470.49 713.315 470.213 712.208 470.213C711.056 470.213 710.095 470.505 709.327 471.089C708.566 471.673 707.993 472.457 707.609 473.441C707.233 474.424 707.044 475.515 707.044 476.714C707.044 477.944 707.237 479.031 707.621 479.976C708.013 480.914 708.589 481.652 709.35 482.189C710.118 482.72 711.071 482.985 712.208 482.985ZM755.855 462.098H759.267L767.289 481.694H767.566L775.589 462.098H779.001V485.705H776.326V467.77H776.096L768.719 485.705H766.137L758.76 467.77H758.529V485.705H755.855V462.098ZM800.285 486.12C799.163 486.12 798.145 485.909 797.23 485.486C796.316 485.056 795.59 484.437 795.052 483.63C794.514 482.816 794.245 481.832 794.245 480.679C794.245 479.665 794.445 478.843 794.844 478.213C795.244 477.575 795.778 477.075 796.447 476.714C797.115 476.353 797.853 476.084 798.66 475.907C799.474 475.723 800.293 475.577 801.115 475.469C802.191 475.331 803.063 475.227 803.731 475.158C804.408 475.081 804.899 474.955 805.207 474.778C805.522 474.601 805.679 474.294 805.679 473.856V473.763C805.679 472.626 805.368 471.742 804.746 471.112C804.131 470.482 803.197 470.167 801.945 470.167C800.646 470.167 799.628 470.451 798.89 471.02C798.152 471.589 797.634 472.196 797.334 472.841L794.752 471.919C795.213 470.843 795.828 470.006 796.596 469.406C797.373 468.799 798.218 468.377 799.132 468.138C800.054 467.892 800.961 467.77 801.853 467.77C802.421 467.77 803.074 467.839 803.812 467.977C804.557 468.108 805.276 468.38 805.968 468.795C806.667 469.21 807.247 469.837 807.708 470.674C808.169 471.512 808.4 472.634 808.4 474.04V485.705H805.679V483.308H805.541C805.357 483.692 805.049 484.103 804.619 484.541C804.189 484.979 803.616 485.352 802.901 485.659C802.187 485.966 801.315 486.12 800.285 486.12ZM800.7 483.676C801.776 483.676 802.682 483.465 803.42 483.042C804.166 482.62 804.727 482.074 805.103 481.406C805.487 480.737 805.679 480.034 805.679 479.296V476.806C805.564 476.945 805.311 477.072 804.919 477.187C804.534 477.294 804.089 477.39 803.582 477.475C803.082 477.552 802.594 477.621 802.118 477.682C801.649 477.736 801.269 477.782 800.977 477.821C800.27 477.913 799.609 478.063 798.994 478.27C798.387 478.47 797.895 478.774 797.519 479.181C797.15 479.581 796.965 480.126 796.965 480.818C796.965 481.763 797.315 482.478 798.014 482.962C798.721 483.438 799.616 483.676 800.7 483.676ZM826.797 462.098V485.705H824.076V462.098H826.797ZM845.211 462.098V485.705H842.491V462.098H845.211Z" fill="#1E1E1E"/>
</svg>
