<svg width="1269" height="731" viewBox="0 0 1269 731" fill="none" xmlns="http://www.w3.org/2000/svg">
<path d="M437.712 259.026V340.77V422.515H379.955V259.026C379.955 168.664 445.117 60.2169 539.988 28.9393C562.719 20.206 586.182 13.515 610.1 8.94547L620.619 6.9358L621.498 69.5C621.498 69.5 613.51 68.5657 592.498 73C578.922 75.865 559.618 78.7775 534.498 93C470.498 129.235 437.712 200.337 437.712 259.026ZM564.102 287.904H474.689V230.147H564.102V287.904Z" fill="#F79F13"/>
<path d="M831.287 422.517V286.509H663.606V422.517H605.849V9.70984L639.069 3.60651L663.606 0V228.752H831.287V104.527L843.954 121.284C869.556 155.15 884.845 195.683 887.989 238.022L889.044 252.227V422.517H831.287Z" fill="white"/>
<path d="M121.133 506.975H39.7775V547.828H117.118V566.334H39.7775V625.518H21.2716V488.469H121.133V506.975ZM200.738 488.469C238.623 488.469 269.35 519.196 269.35 557.081C269.35 594.791 238.623 625.518 200.738 625.518H199.865C162.155 625.518 131.428 594.791 131.428 557.081C131.428 519.196 162.155 488.469 199.865 488.469H200.738ZM200.738 607.012C228.322 607.012 250.844 584.665 250.844 557.081C250.844 529.497 228.322 506.975 200.738 506.975H199.865C172.281 506.975 149.934 529.497 149.934 557.081C149.934 584.665 172.281 607.012 199.865 607.012H200.738ZM349.906 577.507H348.859L391.283 625.518H366.666L307.657 559.001H349.906C364.222 559.001 375.919 547.304 375.919 532.988C375.919 518.672 364.222 506.975 349.906 506.975H306.086V625.518H287.58V488.469H349.906C374.348 488.469 394.425 508.547 394.425 532.988C394.425 557.605 374.348 577.507 349.906 577.507ZM401.202 488.469H522.189V506.975H470.861V625.518H452.355V506.975H401.202V488.469ZM706.86 488.469H725.366V625.518H706.86V565.985H636.328V625.518H617.822V488.469H636.328V547.304H706.86V488.469ZM812.804 488.469C850.688 488.469 881.415 519.196 881.415 557.081C881.415 594.791 850.688 625.518 812.804 625.518H811.931C774.221 625.518 743.494 594.791 743.494 557.081C743.494 519.196 774.221 488.469 811.931 488.469H812.804ZM812.804 607.012C840.388 607.012 862.909 584.665 862.909 557.081C862.909 529.497 840.388 506.975 812.804 506.975H811.931C784.347 506.975 762 529.497 762 557.081C762 584.665 784.347 607.012 811.931 607.012H812.804ZM995.666 488.469H1014.17V567.032C1014.17 599.33 987.985 625.518 955.687 625.518C923.389 625.518 897.201 599.33 897.201 567.032V488.469H915.707V567.032C915.707 589.03 933.689 607.012 955.687 607.012C977.684 607.012 995.666 589.03 995.666 567.032V488.469ZM1115.82 563.017C1126.99 568.603 1134.15 580.126 1134.15 592.696C1134.15 610.853 1119.48 625.518 1101.33 625.518H1030.62V607.012H1101.33C1109.18 607.012 1115.64 600.552 1115.64 592.696C1115.64 587.284 1112.5 582.221 1107.61 579.777L1048.95 550.97C1037.78 545.558 1030.62 533.861 1030.62 521.466C1030.62 503.309 1045.28 488.469 1063.44 488.469H1132.05V506.975H1063.44C1055.58 506.975 1049.12 513.435 1049.12 521.466C1049.12 526.878 1052.27 531.941 1057.16 534.385L1115.82 563.017ZM1252.52 506.975H1171.16V547.828H1248.5V566.334H1171.16V607.012H1252.52V625.518H1152.66V488.469H1252.52V506.975Z" fill="white"/>
<path d="M17.7513 687.358V683.608H43.9331V687.358H32.9558V718.518H28.7286V687.358H17.7513ZM69.7745 702.768V718.518H65.7518V683.608H69.7745V696.427H70.1154C70.7291 695.074 71.6495 694.001 72.8768 693.205C74.1154 692.398 75.7632 691.995 77.82 691.995C79.6041 691.995 81.1666 692.353 82.5075 693.069C83.8484 693.773 84.8882 694.858 85.6268 696.324C86.3768 697.779 86.7518 699.631 86.7518 701.881V718.518H82.7291V702.154C82.7291 700.074 82.1893 698.466 81.1098 697.33C80.0416 696.182 78.5586 695.608 76.6609 695.608C75.3427 695.608 74.1609 695.887 73.1154 696.444C72.0813 697.001 71.2632 697.813 70.6609 698.881C70.07 699.949 69.7745 701.245 69.7745 702.768ZM120.928 719.063C118.406 719.063 116.23 718.506 114.4 717.393C112.582 716.268 111.178 714.699 110.19 712.688C109.213 710.665 108.724 708.313 108.724 705.631C108.724 702.949 109.213 700.586 110.19 698.54C111.178 696.483 112.553 694.881 114.315 693.733C116.088 692.574 118.156 691.995 120.519 691.995C121.883 691.995 123.23 692.222 124.559 692.677C125.889 693.131 127.099 693.87 128.19 694.893C129.281 695.904 130.15 697.245 130.798 698.915C131.445 700.586 131.769 702.643 131.769 705.086V706.79H111.588V703.313H127.678C127.678 701.836 127.383 700.518 126.792 699.358C126.213 698.199 125.383 697.285 124.303 696.614C123.235 695.944 121.974 695.608 120.519 695.608C118.917 695.608 117.531 696.006 116.36 696.802C115.201 697.586 114.309 698.608 113.684 699.87C113.059 701.131 112.747 702.483 112.747 703.927V706.245C112.747 708.222 113.088 709.898 113.769 711.273C114.463 712.637 115.423 713.677 116.65 714.393C117.877 715.097 119.303 715.449 120.928 715.449C121.985 715.449 122.94 715.302 123.792 715.006C124.656 714.699 125.4 714.245 126.025 713.643C126.65 713.029 127.133 712.268 127.474 711.358L131.36 712.449C130.951 713.768 130.264 714.927 129.298 715.927C128.332 716.915 127.139 717.688 125.718 718.245C124.298 718.79 122.701 719.063 120.928 719.063ZM187.091 683.608V718.518H183.069V683.608H187.091ZM218.004 719.131C216.345 719.131 214.839 718.819 213.487 718.194C212.135 717.557 211.061 716.643 210.265 715.449C209.47 714.245 209.072 712.79 209.072 711.086C209.072 709.586 209.367 708.37 209.958 707.438C210.549 706.495 211.339 705.756 212.328 705.222C213.316 704.688 214.407 704.29 215.6 704.029C216.805 703.756 218.015 703.54 219.231 703.381C220.822 703.177 222.112 703.023 223.1 702.921C224.1 702.807 224.828 702.62 225.282 702.358C225.748 702.097 225.981 701.643 225.981 700.995V700.858C225.981 699.177 225.521 697.87 224.6 696.938C223.691 696.006 222.311 695.54 220.458 695.54C218.538 695.54 217.032 695.961 215.941 696.802C214.85 697.643 214.083 698.54 213.64 699.495L209.822 698.131C210.504 696.54 211.413 695.302 212.549 694.415C213.697 693.518 214.947 692.893 216.299 692.54C217.663 692.177 219.004 691.995 220.322 691.995C221.163 691.995 222.129 692.097 223.22 692.302C224.322 692.495 225.385 692.898 226.407 693.512C227.441 694.126 228.299 695.052 228.981 696.29C229.663 697.529 230.004 699.188 230.004 701.268V718.518H225.981V714.972H225.777C225.504 715.54 225.049 716.148 224.413 716.796C223.777 717.444 222.93 717.995 221.873 718.449C220.816 718.904 219.527 719.131 218.004 719.131ZM218.617 715.518C220.208 715.518 221.549 715.205 222.64 714.58C223.742 713.955 224.572 713.148 225.129 712.16C225.697 711.171 225.981 710.131 225.981 709.04V705.358C225.811 705.563 225.436 705.751 224.856 705.921C224.288 706.08 223.629 706.222 222.879 706.347C222.14 706.461 221.419 706.563 220.714 706.654C220.021 706.733 219.458 706.802 219.027 706.858C217.981 706.995 217.004 707.216 216.095 707.523C215.197 707.819 214.47 708.268 213.913 708.87C213.367 709.461 213.095 710.268 213.095 711.29C213.095 712.688 213.612 713.745 214.646 714.461C215.691 715.165 217.015 715.518 218.617 715.518ZM253.186 718.518V692.336H257.073V696.29H257.345C257.823 694.995 258.686 693.944 259.936 693.137C261.186 692.33 262.595 691.927 264.163 691.927C264.459 691.927 264.828 691.932 265.271 691.944C265.715 691.955 266.05 691.972 266.277 691.995V696.086C266.141 696.052 265.828 696.001 265.34 695.932C264.862 695.853 264.357 695.813 263.823 695.813C262.55 695.813 261.413 696.08 260.413 696.614C259.425 697.137 258.641 697.864 258.061 698.796C257.493 699.716 257.209 700.768 257.209 701.949V718.518H253.186ZM296.657 728.881C294.714 728.881 293.043 728.631 291.645 728.131C290.248 727.643 289.083 726.995 288.151 726.188C287.231 725.393 286.498 724.54 285.952 723.631L289.157 721.381C289.52 721.858 289.981 722.404 290.538 723.018C291.094 723.643 291.856 724.182 292.822 724.637C293.799 725.103 295.077 725.336 296.657 725.336C298.77 725.336 300.515 724.824 301.89 723.802C303.265 722.779 303.952 721.177 303.952 718.995V713.677H303.611C303.316 714.154 302.895 714.745 302.35 715.449C301.816 716.143 301.043 716.762 300.032 717.307C299.032 717.841 297.68 718.108 295.975 718.108C293.861 718.108 291.964 717.608 290.282 716.608C288.611 715.608 287.288 714.154 286.31 712.245C285.344 710.336 284.861 708.018 284.861 705.29C284.861 702.608 285.333 700.273 286.276 698.285C287.219 696.285 288.532 694.739 290.214 693.648C291.895 692.546 293.839 691.995 296.043 691.995C297.748 691.995 299.1 692.279 300.1 692.847C301.111 693.404 301.884 694.04 302.418 694.756C302.964 695.461 303.384 696.04 303.68 696.495H304.089V692.336H307.975V719.268C307.975 721.518 307.464 723.347 306.441 724.756C305.43 726.177 304.066 727.216 302.35 727.876C300.645 728.546 298.748 728.881 296.657 728.881ZM296.52 714.495C298.134 714.495 299.498 714.126 300.611 713.387C301.725 712.648 302.572 711.586 303.151 710.199C303.731 708.813 304.02 707.154 304.02 705.222C304.02 703.336 303.736 701.671 303.168 700.228C302.6 698.785 301.759 697.654 300.645 696.836C299.532 696.018 298.157 695.608 296.52 695.608C294.816 695.608 293.395 696.04 292.259 696.904C291.134 697.768 290.288 698.927 289.719 700.381C289.163 701.836 288.884 703.449 288.884 705.222C288.884 707.04 289.168 708.648 289.736 710.046C290.316 711.432 291.168 712.523 292.293 713.319C293.43 714.103 294.839 714.495 296.52 714.495ZM342.156 719.063C339.633 719.063 337.457 718.506 335.628 717.393C333.809 716.268 332.406 714.699 331.417 712.688C330.44 710.665 329.951 708.313 329.951 705.631C329.951 702.949 330.44 700.586 331.417 698.54C332.406 696.483 333.781 694.881 335.542 693.733C337.315 692.574 339.383 691.995 341.747 691.995C343.11 691.995 344.457 692.222 345.787 692.677C347.116 693.131 348.326 693.87 349.417 694.893C350.508 695.904 351.378 697.245 352.025 698.915C352.673 700.586 352.997 702.643 352.997 705.086V706.79H332.815V703.313H348.906C348.906 701.836 348.61 700.518 348.02 699.358C347.44 698.199 346.61 697.285 345.531 696.614C344.463 695.944 343.201 695.608 341.747 695.608C340.145 695.608 338.758 696.006 337.588 696.802C336.429 697.586 335.537 698.608 334.912 699.87C334.287 701.131 333.974 702.483 333.974 703.927V706.245C333.974 708.222 334.315 709.898 334.997 711.273C335.69 712.637 336.65 713.677 337.878 714.393C339.105 715.097 340.531 715.449 342.156 715.449C343.213 715.449 344.167 715.302 345.02 715.006C345.883 714.699 346.628 714.245 347.253 713.643C347.878 713.029 348.36 712.268 348.701 711.358L352.588 712.449C352.179 713.768 351.491 714.927 350.525 715.927C349.559 716.915 348.366 717.688 346.946 718.245C345.525 718.79 343.929 719.063 342.156 719.063ZM393.502 698.199L389.888 699.222C389.661 698.62 389.325 698.035 388.882 697.466C388.45 696.887 387.86 696.41 387.11 696.035C386.36 695.66 385.399 695.472 384.229 695.472C382.627 695.472 381.291 695.841 380.223 696.58C379.166 697.307 378.638 698.233 378.638 699.358C378.638 700.358 379.002 701.148 379.729 701.728C380.456 702.307 381.593 702.79 383.138 703.177L387.024 704.131C389.365 704.699 391.11 705.569 392.257 706.739C393.405 707.898 393.979 709.393 393.979 711.222C393.979 712.722 393.547 714.063 392.683 715.245C391.831 716.427 390.638 717.358 389.104 718.04C387.57 718.722 385.786 719.063 383.752 719.063C381.081 719.063 378.871 718.483 377.121 717.324C375.371 716.165 374.263 714.472 373.797 712.245L377.615 711.29C377.979 712.699 378.666 713.756 379.678 714.461C380.7 715.165 382.036 715.518 383.683 715.518C385.558 715.518 387.047 715.12 388.149 714.324C389.263 713.518 389.82 712.552 389.82 711.427C389.82 710.518 389.502 709.756 388.865 709.143C388.229 708.518 387.252 708.052 385.933 707.745L381.57 706.722C379.172 706.154 377.411 705.273 376.286 704.08C375.172 702.876 374.615 701.37 374.615 699.563C374.615 698.086 375.03 696.779 375.86 695.643C376.7 694.506 377.843 693.614 379.286 692.966C380.74 692.319 382.388 691.995 384.229 691.995C386.82 691.995 388.854 692.563 390.331 693.699C391.82 694.836 392.877 696.336 393.502 698.199ZM427.261 692.336V695.745H413.692V692.336H427.261ZM417.647 686.063H421.67V711.018C421.67 712.154 421.835 713.006 422.164 713.574C422.505 714.131 422.937 714.506 423.46 714.699C423.994 714.881 424.556 714.972 425.147 714.972C425.59 714.972 425.954 714.949 426.238 714.904C426.522 714.847 426.749 714.802 426.92 714.768L427.738 718.381C427.465 718.483 427.085 718.586 426.596 718.688C426.107 718.802 425.488 718.858 424.738 718.858C423.602 718.858 422.488 718.614 421.397 718.126C420.317 717.637 419.42 716.893 418.704 715.893C417.999 714.893 417.647 713.631 417.647 712.108V686.063ZM508.492 701.063C508.492 704.745 507.827 707.927 506.497 710.608C505.168 713.29 503.344 715.358 501.026 716.813C498.708 718.268 496.06 718.995 493.083 718.995C490.105 718.995 487.458 718.268 485.14 716.813C482.821 715.358 480.997 713.29 479.668 710.608C478.338 707.927 477.674 704.745 477.674 701.063C477.674 697.381 478.338 694.199 479.668 691.518C480.997 688.836 482.821 686.768 485.14 685.313C487.458 683.858 490.105 683.131 493.083 683.131C496.06 683.131 498.708 683.858 501.026 685.313C503.344 686.768 505.168 688.836 506.497 691.518C507.827 694.199 508.492 697.381 508.492 701.063ZM504.401 701.063C504.401 698.04 503.895 695.489 502.884 693.41C501.884 691.33 500.526 689.756 498.81 688.688C497.105 687.62 495.196 687.086 493.083 687.086C490.969 687.086 489.054 687.62 487.338 688.688C485.634 689.756 484.276 691.33 483.265 693.41C482.265 695.489 481.765 698.04 481.765 701.063C481.765 704.086 482.265 706.637 483.265 708.716C484.276 710.796 485.634 712.37 487.338 713.438C489.054 714.506 490.969 715.04 493.083 715.04C495.196 715.04 497.105 714.506 498.81 713.438C500.526 712.37 501.884 710.796 502.884 708.716C503.895 706.637 504.401 704.086 504.401 701.063ZM534.917 702.768V718.518H530.894V692.336H534.781V696.427H535.122C535.735 695.097 536.667 694.029 537.917 693.222C539.167 692.404 540.781 691.995 542.758 691.995C544.531 691.995 546.082 692.358 547.411 693.086C548.741 693.802 549.775 694.893 550.514 696.358C551.252 697.813 551.622 699.654 551.622 701.881V718.518H547.599V702.154C547.599 700.097 547.065 698.495 545.997 697.347C544.928 696.188 543.463 695.608 541.599 695.608C540.315 695.608 539.167 695.887 538.156 696.444C537.156 697.001 536.366 697.813 535.786 698.881C535.207 699.949 534.917 701.245 534.917 702.768ZM578.835 683.608V718.518H574.812V683.608H578.835ZM602.043 718.518V692.336H606.066V718.518H602.043ZM604.088 687.972C603.304 687.972 602.628 687.705 602.06 687.171C601.503 686.637 601.225 685.995 601.225 685.245C601.225 684.495 601.503 683.853 602.06 683.319C602.628 682.785 603.304 682.518 604.088 682.518C604.873 682.518 605.543 682.785 606.1 683.319C606.668 683.853 606.952 684.495 606.952 685.245C606.952 685.995 606.668 686.637 606.1 687.171C605.543 687.705 604.873 687.972 604.088 687.972ZM633.296 702.768V718.518H629.274V692.336H633.16V696.427H633.501C634.115 695.097 635.046 694.029 636.296 693.222C637.546 692.404 639.16 691.995 641.137 691.995C642.91 691.995 644.461 692.358 645.791 693.086C647.12 693.802 648.154 694.893 648.893 696.358C649.632 697.813 650.001 699.654 650.001 701.881V718.518H645.978V702.154C645.978 700.097 645.444 698.495 644.376 697.347C643.308 696.188 641.842 695.608 639.978 695.608C638.694 695.608 637.546 695.887 636.535 696.444C635.535 697.001 634.745 697.813 634.166 698.881C633.586 699.949 633.296 701.245 633.296 702.768ZM684.169 719.063C681.646 719.063 679.47 718.506 677.641 717.393C675.823 716.268 674.419 714.699 673.43 712.688C672.453 710.665 671.965 708.313 671.965 705.631C671.965 702.949 672.453 700.586 673.43 698.54C674.419 696.483 675.794 694.881 677.555 693.733C679.328 692.574 681.396 691.995 683.76 691.995C685.124 691.995 686.47 692.222 687.8 692.677C689.129 693.131 690.34 693.87 691.43 694.893C692.521 695.904 693.391 697.245 694.038 698.915C694.686 700.586 695.01 702.643 695.01 705.086V706.79H674.828V703.313H690.919C690.919 701.836 690.624 700.518 690.033 699.358C689.453 698.199 688.624 697.285 687.544 696.614C686.476 695.944 685.215 695.608 683.76 695.608C682.158 695.608 680.771 696.006 679.601 696.802C678.442 697.586 677.55 698.608 676.925 699.87C676.3 701.131 675.987 702.483 675.987 703.927V706.245C675.987 708.222 676.328 709.898 677.01 711.273C677.703 712.637 678.663 713.677 679.891 714.393C681.118 715.097 682.544 715.449 684.169 715.449C685.226 715.449 686.18 715.302 687.033 715.006C687.896 714.699 688.641 714.245 689.266 713.643C689.891 713.029 690.374 712.268 690.715 711.358L694.601 712.449C694.192 713.768 693.504 714.927 692.538 715.927C691.573 716.915 690.379 717.688 688.959 718.245C687.538 718.79 685.942 719.063 684.169 719.063ZM765.946 692.336C765.741 690.608 764.912 689.268 763.457 688.313C762.003 687.358 760.218 686.881 758.105 686.881C756.559 686.881 755.207 687.131 754.048 687.631C752.9 688.131 752.003 688.819 751.355 689.694C750.718 690.569 750.4 691.563 750.4 692.677C750.4 693.608 750.622 694.41 751.065 695.08C751.52 695.739 752.099 696.29 752.804 696.733C753.508 697.165 754.247 697.523 755.02 697.807C755.792 698.08 756.503 698.302 757.15 698.472L760.696 699.427C761.605 699.665 762.616 699.995 763.73 700.415C764.855 700.836 765.929 701.41 766.951 702.137C767.985 702.853 768.838 703.773 769.508 704.898C770.179 706.023 770.514 707.404 770.514 709.04C770.514 710.927 770.02 712.631 769.031 714.154C768.054 715.677 766.622 716.887 764.735 717.785C762.86 718.682 760.582 719.131 757.9 719.131C755.4 719.131 753.235 718.728 751.406 717.921C749.588 717.114 748.156 715.989 747.11 714.546C746.076 713.103 745.491 711.427 745.355 709.518H749.718C749.832 710.836 750.275 711.927 751.048 712.79C751.832 713.643 752.821 714.279 754.014 714.699C755.218 715.108 756.514 715.313 757.9 715.313C759.514 715.313 760.963 715.052 762.247 714.529C763.531 713.995 764.548 713.256 765.298 712.313C766.048 711.358 766.423 710.245 766.423 708.972C766.423 707.813 766.099 706.87 765.451 706.143C764.804 705.415 763.951 704.824 762.895 704.37C761.838 703.915 760.696 703.518 759.468 703.177L755.173 701.949C752.446 701.165 750.287 700.046 748.696 698.591C747.105 697.137 746.309 695.233 746.309 692.881C746.309 690.927 746.838 689.222 747.895 687.768C748.963 686.302 750.395 685.165 752.19 684.358C753.997 683.54 756.014 683.131 758.241 683.131C760.491 683.131 762.491 683.535 764.241 684.341C765.991 685.137 767.378 686.228 768.4 687.614C769.434 689.001 769.98 690.574 770.037 692.336H765.946ZM796.781 702.768V718.518H792.759V683.608H796.781V696.427H797.122C797.736 695.074 798.656 694.001 799.884 693.205C801.122 692.398 802.77 691.995 804.827 691.995C806.611 691.995 808.173 692.353 809.514 693.069C810.855 693.773 811.895 694.858 812.634 696.324C813.384 697.779 813.759 699.631 813.759 701.881V718.518H809.736V702.154C809.736 700.074 809.196 698.466 808.117 697.33C807.048 696.182 805.565 695.608 803.668 695.608C802.35 695.608 801.168 695.887 800.122 696.444C799.088 697.001 798.27 697.813 797.668 698.881C797.077 699.949 796.781 701.245 796.781 702.768ZM847.594 719.063C845.231 719.063 843.157 718.501 841.373 717.376C839.6 716.251 838.214 714.677 837.214 712.654C836.225 710.631 835.731 708.268 835.731 705.563C835.731 702.836 836.225 700.455 837.214 698.421C838.214 696.387 839.6 694.807 841.373 693.682C843.157 692.557 845.231 691.995 847.594 691.995C849.958 691.995 852.026 692.557 853.799 693.682C855.583 694.807 856.969 696.387 857.958 698.421C858.958 700.455 859.458 702.836 859.458 705.563C859.458 708.268 858.958 710.631 857.958 712.654C856.969 714.677 855.583 716.251 853.799 717.376C852.026 718.501 849.958 719.063 847.594 719.063ZM847.594 715.449C849.39 715.449 850.867 714.989 852.026 714.069C853.185 713.148 854.043 711.938 854.6 710.438C855.157 708.938 855.435 707.313 855.435 705.563C855.435 703.813 855.157 702.182 854.6 700.671C854.043 699.16 853.185 697.938 852.026 697.006C850.867 696.074 849.39 695.608 847.594 695.608C845.799 695.608 844.322 696.074 843.163 697.006C842.004 697.938 841.146 699.16 840.589 700.671C840.032 702.182 839.754 703.813 839.754 705.563C839.754 707.313 840.032 708.938 840.589 710.438C841.146 711.938 842.004 713.148 843.163 714.069C844.322 714.989 845.799 715.449 847.594 715.449ZM881.439 728.336V692.336H885.325V696.495H885.802C886.098 696.04 886.507 695.461 887.03 694.756C887.564 694.04 888.325 693.404 889.314 692.847C890.314 692.279 891.666 691.995 893.37 691.995C895.575 691.995 897.518 692.546 899.2 693.648C900.882 694.751 902.194 696.313 903.138 698.336C904.081 700.358 904.552 702.745 904.552 705.495C904.552 708.268 904.081 710.671 903.138 712.705C902.194 714.728 900.888 716.296 899.217 717.41C897.547 718.512 895.62 719.063 893.439 719.063C891.757 719.063 890.41 718.785 889.399 718.228C888.388 717.66 887.609 717.018 887.064 716.302C886.518 715.574 886.098 714.972 885.802 714.495H885.461V728.336H881.439ZM885.393 705.427C885.393 707.404 885.683 709.148 886.263 710.66C886.842 712.16 887.689 713.336 888.802 714.188C889.916 715.029 891.28 715.449 892.893 715.449C894.575 715.449 895.978 715.006 897.103 714.12C898.24 713.222 899.092 712.018 899.66 710.506C900.24 708.983 900.53 707.29 900.53 705.427C900.53 703.586 900.245 701.927 899.677 700.449C899.12 698.961 898.274 697.785 897.138 696.921C896.013 696.046 894.598 695.608 892.893 695.608C891.257 695.608 889.882 696.023 888.768 696.853C887.655 697.671 886.814 698.819 886.245 700.296C885.677 701.762 885.393 703.472 885.393 705.427ZM926.529 728.336V692.336H930.415V696.495H930.892C931.188 696.04 931.597 695.461 932.12 694.756C932.654 694.04 933.415 693.404 934.404 692.847C935.404 692.279 936.756 691.995 938.46 691.995C940.665 691.995 942.608 692.546 944.29 693.648C945.972 694.751 947.284 696.313 948.228 698.336C949.171 700.358 949.642 702.745 949.642 705.495C949.642 708.268 949.171 710.671 948.228 712.705C947.284 714.728 945.978 716.296 944.307 717.41C942.637 718.512 940.71 719.063 938.529 719.063C936.847 719.063 935.5 718.785 934.489 718.228C933.478 717.66 932.699 717.018 932.154 716.302C931.608 715.574 931.188 714.972 930.892 714.495H930.551V728.336H926.529ZM930.483 705.427C930.483 707.404 930.773 709.148 931.353 710.66C931.932 712.16 932.779 713.336 933.892 714.188C935.006 715.029 936.37 715.449 937.983 715.449C939.665 715.449 941.068 715.006 942.193 714.12C943.33 713.222 944.182 712.018 944.75 710.506C945.33 708.983 945.62 707.29 945.62 705.427C945.62 703.586 945.336 701.927 944.767 700.449C944.211 698.961 943.364 697.785 942.228 696.921C941.103 696.046 939.688 695.608 937.983 695.608C936.347 695.608 934.972 696.023 933.858 696.853C932.745 697.671 931.904 698.819 931.335 700.296C930.767 701.762 930.483 703.472 930.483 705.427ZM971.619 718.518V692.336H975.641V718.518H971.619ZM973.664 687.972C972.88 687.972 972.204 687.705 971.636 687.171C971.079 686.637 970.801 685.995 970.801 685.245C970.801 684.495 971.079 683.853 971.636 683.319C972.204 682.785 972.88 682.518 973.664 682.518C974.448 682.518 975.119 682.785 975.676 683.319C976.244 683.853 976.528 684.495 976.528 685.245C976.528 685.995 976.244 686.637 975.676 687.171C975.119 687.705 974.448 687.972 973.664 687.972ZM1002.87 702.768V718.518H998.849V692.336H1002.74V696.427H1003.08C1003.69 695.097 1004.62 694.029 1005.87 693.222C1007.12 692.404 1008.74 691.995 1010.71 691.995C1012.49 691.995 1014.04 692.358 1015.37 693.086C1016.7 693.802 1017.73 694.893 1018.47 696.358C1019.21 697.813 1019.58 699.654 1019.58 701.881V718.518H1015.55V702.154C1015.55 700.097 1015.02 698.495 1013.95 697.347C1012.88 696.188 1011.42 695.608 1009.55 695.608C1008.27 695.608 1007.12 695.887 1006.11 696.444C1005.11 697.001 1004.32 697.813 1003.74 698.881C1003.16 699.949 1002.87 701.245 1002.87 702.768ZM1053.34 728.881C1051.39 728.881 1049.72 728.631 1048.32 728.131C1046.93 727.643 1045.76 726.995 1044.83 726.188C1043.91 725.393 1043.18 724.54 1042.63 723.631L1045.84 721.381C1046.2 721.858 1046.66 722.404 1047.22 723.018C1047.77 723.643 1048.53 724.182 1049.5 724.637C1050.48 725.103 1051.76 725.336 1053.34 725.336C1055.45 725.336 1057.19 724.824 1058.57 723.802C1059.94 722.779 1060.63 721.177 1060.63 718.995V713.677H1060.29C1059.99 714.154 1059.57 714.745 1059.03 715.449C1058.49 716.143 1057.72 716.762 1056.71 717.307C1055.71 717.841 1054.36 718.108 1052.65 718.108C1050.54 718.108 1048.64 717.608 1046.96 716.608C1045.29 715.608 1043.97 714.154 1042.99 712.245C1042.02 710.336 1041.54 708.018 1041.54 705.29C1041.54 702.608 1042.01 700.273 1042.96 698.285C1043.9 696.285 1045.21 694.739 1046.89 693.648C1048.57 692.546 1050.52 691.995 1052.72 691.995C1054.43 691.995 1055.78 692.279 1056.78 692.847C1057.79 693.404 1058.56 694.04 1059.1 694.756C1059.64 695.461 1060.06 696.04 1060.36 696.495H1060.77V692.336H1064.65V719.268C1064.65 721.518 1064.14 723.347 1063.12 724.756C1062.11 726.177 1060.74 727.216 1059.03 727.876C1057.32 728.546 1055.43 728.881 1053.34 728.881ZM1053.2 714.495C1054.81 714.495 1056.18 714.126 1057.29 713.387C1058.4 712.648 1059.25 711.586 1059.83 710.199C1060.41 708.813 1060.7 707.154 1060.7 705.222C1060.7 703.336 1060.42 701.671 1059.85 700.228C1059.28 698.785 1058.44 697.654 1057.32 696.836C1056.21 696.018 1054.84 695.608 1053.2 695.608C1051.49 695.608 1050.07 696.04 1048.94 696.904C1047.81 697.768 1046.97 698.927 1046.4 700.381C1045.84 701.836 1045.56 703.449 1045.56 705.222C1045.56 707.04 1045.85 708.648 1046.42 710.046C1046.99 711.432 1047.85 712.523 1048.97 713.319C1050.11 714.103 1051.52 714.495 1053.2 714.495ZM1117.74 683.608H1122.79L1134.65 712.586H1135.06L1146.92 683.608H1151.97V718.518H1148.02V691.995H1147.67L1136.77 718.518H1132.95L1122.04 691.995H1121.7V718.518H1117.74V683.608ZM1183.45 719.131C1181.79 719.131 1180.28 718.819 1178.93 718.194C1177.58 717.557 1176.5 716.643 1175.71 715.449C1174.91 714.245 1174.51 712.79 1174.51 711.086C1174.51 709.586 1174.81 708.37 1175.4 707.438C1175.99 706.495 1176.78 705.756 1177.77 705.222C1178.76 704.688 1179.85 704.29 1181.04 704.029C1182.25 703.756 1183.46 703.54 1184.67 703.381C1186.26 703.177 1187.55 703.023 1188.54 702.921C1189.54 702.807 1190.27 702.62 1190.72 702.358C1191.19 702.097 1191.42 701.643 1191.42 700.995V700.858C1191.42 699.177 1190.96 697.87 1190.04 696.938C1189.13 696.006 1187.75 695.54 1185.9 695.54C1183.98 695.54 1182.47 695.961 1181.38 696.802C1180.29 697.643 1179.52 698.54 1179.08 699.495L1175.26 698.131C1175.95 696.54 1176.85 695.302 1177.99 694.415C1179.14 693.518 1180.39 692.893 1181.74 692.54C1183.1 692.177 1184.45 691.995 1185.76 691.995C1186.6 691.995 1187.57 692.097 1188.66 692.302C1189.76 692.495 1190.83 692.898 1191.85 693.512C1192.88 694.126 1193.74 695.052 1194.42 696.29C1195.1 697.529 1195.45 699.188 1195.45 701.268V718.518H1191.42V714.972H1191.22C1190.95 715.54 1190.49 716.148 1189.85 716.796C1189.22 717.444 1188.37 717.995 1187.31 718.449C1186.26 718.904 1184.97 719.131 1183.45 719.131ZM1184.06 715.518C1185.65 715.518 1186.99 715.205 1188.08 714.58C1189.18 713.955 1190.01 713.148 1190.57 712.16C1191.14 711.171 1191.42 710.131 1191.42 709.04V705.358C1191.25 705.563 1190.88 705.751 1190.3 705.921C1189.73 706.08 1189.07 706.222 1188.32 706.347C1187.58 706.461 1186.86 706.563 1186.16 706.654C1185.46 706.733 1184.9 706.802 1184.47 706.858C1183.42 706.995 1182.45 707.216 1181.54 707.523C1180.64 707.819 1179.91 708.268 1179.35 708.87C1178.81 709.461 1178.54 710.268 1178.54 711.29C1178.54 712.688 1179.05 713.745 1180.09 714.461C1181.13 715.165 1182.46 715.518 1184.06 715.518ZM1222.65 683.608V718.518H1218.63V683.608H1222.65ZM1249.88 683.608V718.518H1245.86V683.608H1249.88Z" fill="white"/>
</svg>
